<svg width="385" height="322" viewBox="0 0 385 322" fill="none" xmlns="http://www.w3.org/2000/svg">
<rect width="170" height="48" rx="20" fill="#EDEDED"/>
<rect x="198" width="52" height="48" rx="20" fill="#EDEDED"/>
<rect x="278" width="107" height="48" rx="20" fill="#EDEDED"/>
<rect x="215" y="68" width="170" height="48" rx="20" fill="#EDEDED"/>
<rect y="136" width="300" height="134" rx="20" fill="#EDEDED"/>
<rect x="332" y="136" width="53" height="134" rx="20" fill="#EDEDED"/>
<rect y="68" width="52" height="48" rx="20" fill="#EDEDED"/>
<rect x="85" y="68" width="107" height="48" rx="20" fill="#EDEDED"/>
<path d="M9.83898 321.165C8.40898 321.165 7.03398 320.936 5.71398 320.477C4.41232 320.019 3.40398 319.414 2.68898 318.662L3.48648 317.095C4.18315 317.792 5.10898 318.36 6.26398 318.8C7.41898 319.222 8.61065 319.432 9.83898 319.432C11.5623 319.432 12.8548 319.121 13.7165 318.497C14.5782 317.856 15.009 317.031 15.009 316.022C15.009 315.252 14.7707 314.638 14.294 314.18C13.8357 313.722 13.2673 313.373 12.589 313.135C11.9107 312.878 10.9665 312.603 9.75648 312.31C8.30815 311.943 7.15315 311.595 6.29148 311.265C5.42982 310.917 4.68732 310.394 4.06398 309.697C3.45898 309.001 3.15648 308.057 3.15648 306.865C3.15648 305.893 3.41315 305.013 3.92648 304.225C4.43982 303.418 5.22815 302.777 6.29148 302.3C7.35482 301.823 8.67482 301.585 10.2515 301.585C11.3515 301.585 12.424 301.741 13.469 302.052C14.5323 302.346 15.449 302.758 16.219 303.29L15.5315 304.912C14.7248 304.381 13.8632 303.987 12.9465 303.73C12.0298 303.455 11.1315 303.317 10.2515 303.317C8.56482 303.317 7.29065 303.647 6.42898 304.307C5.58565 304.949 5.16398 305.783 5.16398 306.81C5.16398 307.58 5.39315 308.203 5.85148 308.68C6.32815 309.138 6.91482 309.496 7.61148 309.752C8.32648 309.991 9.27982 310.257 10.4715 310.55C11.8832 310.898 13.0198 311.247 13.8815 311.595C14.7615 311.925 15.504 312.438 16.109 313.135C16.714 313.813 17.0165 314.739 17.0165 315.912C17.0165 316.884 16.7507 317.773 16.219 318.58C15.7057 319.368 14.9082 320.001 13.8265 320.477C12.7448 320.936 11.4157 321.165 9.83898 321.165ZM33.6329 314.372H21.5329C21.6429 315.876 22.2204 317.095 23.2654 318.03C24.3104 318.947 25.6304 319.405 27.2254 319.405C28.1238 319.405 28.9488 319.249 29.7004 318.937C30.4521 318.607 31.1029 318.131 31.6529 317.507L32.7529 318.772C32.1113 319.542 31.3046 320.129 30.3329 320.532C29.3796 320.936 28.3254 321.138 27.1704 321.138C25.6854 321.138 24.3654 320.826 23.2104 320.202C22.0738 319.561 21.1846 318.681 20.5429 317.562C19.9013 316.444 19.5804 315.179 19.5804 313.767C19.5804 312.356 19.8829 311.091 20.4879 309.972C21.1113 308.854 21.9546 307.983 23.0179 307.36C24.0996 306.737 25.3096 306.425 26.6479 306.425C27.9863 306.425 29.1871 306.737 30.2504 307.36C31.3138 307.983 32.1479 308.854 32.7529 309.972C33.3579 311.072 33.6604 312.337 33.6604 313.767L33.6329 314.372ZM26.6479 308.102C25.2546 308.102 24.0813 308.552 23.1279 309.45C22.1929 310.33 21.6613 311.485 21.5329 312.915H31.7904C31.6621 311.485 31.1213 310.33 30.1679 309.45C29.2329 308.552 28.0596 308.102 26.6479 308.102ZM37.6346 300.595H39.5871V321H37.6346V300.595ZM57.6149 314.372H45.5149C45.6249 315.876 46.2024 317.095 47.2474 318.03C48.2924 318.947 49.6124 319.405 51.2074 319.405C52.1057 319.405 52.9307 319.249 53.6824 318.937C54.434 318.607 55.0849 318.131 55.6349 317.507L56.7349 318.772C56.0932 319.542 55.2865 320.129 54.3149 320.532C53.3615 320.936 52.3074 321.138 51.1524 321.138C49.6674 321.138 48.3474 320.826 47.1924 320.202C46.0557 319.561 45.1665 318.681 44.5249 317.562C43.8832 316.444 43.5624 315.179 43.5624 313.767C43.5624 312.356 43.8649 311.091 44.4699 309.972C45.0932 308.854 45.9365 307.983 46.9999 307.36C48.0815 306.737 49.2915 306.425 50.6299 306.425C51.9682 306.425 53.169 306.737 54.2324 307.36C55.2957 307.983 56.1299 308.854 56.7349 309.972C57.3399 311.072 57.6424 312.337 57.6424 313.767L57.6149 314.372ZM50.6299 308.102C49.2365 308.102 48.0632 308.552 47.1099 309.45C46.1749 310.33 45.6432 311.485 45.5149 312.915H55.7724C55.644 311.485 55.1032 310.33 54.1499 309.45C53.2149 308.552 52.0415 308.102 50.6299 308.102ZM67.6115 321.138C66.1815 321.138 64.8982 320.826 63.7615 320.202C62.6432 319.579 61.7632 318.708 61.1215 317.59C60.4799 316.453 60.159 315.179 60.159 313.767C60.159 312.356 60.4799 311.091 61.1215 309.972C61.7632 308.854 62.6432 307.983 63.7615 307.36C64.8982 306.737 66.1815 306.425 67.6115 306.425C68.8582 306.425 69.9674 306.672 70.939 307.167C71.929 307.644 72.7082 308.35 73.2765 309.285L71.819 310.275C71.3424 309.56 70.7374 309.028 70.004 308.68C69.2707 308.313 68.4732 308.13 67.6115 308.13C66.5665 308.13 65.6224 308.368 64.779 308.845C63.954 309.303 63.3032 309.963 62.8265 310.825C62.3682 311.687 62.139 312.667 62.139 313.767C62.139 314.886 62.3682 315.876 62.8265 316.737C63.3032 317.581 63.954 318.241 64.779 318.717C65.6224 319.176 66.5665 319.405 67.6115 319.405C68.4732 319.405 69.2707 319.231 70.004 318.882C70.7374 318.534 71.3424 318.002 71.819 317.287L73.2765 318.277C72.7082 319.212 71.929 319.927 70.939 320.422C69.949 320.899 68.8399 321.138 67.6115 321.138ZM84.8908 320.12C84.5241 320.45 84.0658 320.707 83.5158 320.89C82.9841 321.055 82.4249 321.138 81.8383 321.138C80.4816 321.138 79.4366 320.771 78.7033 320.037C77.9699 319.304 77.6033 318.268 77.6033 316.93V308.185H75.0183V306.535H77.6033V303.372H79.5558V306.535H83.9558V308.185H79.5558V316.82C79.5558 317.682 79.7666 318.342 80.1883 318.8C80.6283 319.24 81.2516 319.46 82.0583 319.46C82.4616 319.46 82.8466 319.396 83.2133 319.267C83.5983 319.139 83.9283 318.956 84.2033 318.717L84.8908 320.12ZM108.237 314.372H96.1374C96.2474 315.876 96.8249 317.095 97.8699 318.03C98.9149 318.947 100.235 319.405 101.83 319.405C102.728 319.405 103.553 319.249 104.305 318.937C105.057 318.607 105.707 318.131 106.257 317.507L107.357 318.772C106.716 319.542 105.909 320.129 104.937 320.532C103.984 320.936 102.93 321.138 101.775 321.138C100.29 321.138 98.9699 320.826 97.8149 320.202C96.6783 319.561 95.7891 318.681 95.1474 317.562C94.5058 316.444 94.1849 315.179 94.1849 313.767C94.1849 312.356 94.4874 311.091 95.0924 309.972C95.7158 308.854 96.5591 307.983 97.6224 307.36C98.7041 306.737 99.9141 306.425 101.252 306.425C102.591 306.425 103.792 306.737 104.855 307.36C105.918 307.983 106.752 308.854 107.357 309.972C107.962 311.072 108.265 312.337 108.265 313.767L108.237 314.372ZM101.252 308.102C99.8591 308.102 98.6858 308.552 97.7324 309.45C96.7974 310.33 96.2658 311.485 96.1374 312.915H106.395C106.267 311.485 105.726 310.33 104.772 309.45C103.837 308.552 102.664 308.102 101.252 308.102ZM124.126 306.535L117.691 321H115.683L109.276 306.535H111.311L116.728 318.855L122.201 306.535H124.126ZM139.068 314.372H126.968C127.078 315.876 127.655 317.095 128.7 318.03C129.745 318.947 131.065 319.405 132.66 319.405C133.558 319.405 134.383 319.249 135.135 318.937C135.887 318.607 136.538 318.131 137.088 317.507L138.188 318.772C137.546 319.542 136.739 320.129 135.768 320.532C134.814 320.936 133.76 321.138 132.605 321.138C131.12 321.138 129.8 320.826 128.645 320.202C127.508 319.561 126.619 318.681 125.978 317.562C125.336 316.444 125.015 315.179 125.015 313.767C125.015 312.356 125.318 311.091 125.923 309.972C126.546 308.854 127.389 307.983 128.453 307.36C129.534 306.737 130.744 306.425 132.083 306.425C133.421 306.425 134.622 306.737 135.685 307.36C136.748 307.983 137.583 308.854 138.188 309.972C138.793 311.072 139.095 312.337 139.095 313.767L139.068 314.372ZM132.083 308.102C130.689 308.102 129.516 308.552 128.563 309.45C127.628 310.33 127.096 311.485 126.968 312.915H137.225C137.097 311.485 136.556 310.33 135.603 309.45C134.668 308.552 133.494 308.102 132.083 308.102ZM150.439 306.425C152.254 306.425 153.693 306.957 154.757 308.02C155.838 309.065 156.379 310.596 156.379 312.612V321H154.427V312.805C154.427 311.302 154.051 310.156 153.299 309.367C152.548 308.579 151.475 308.185 150.082 308.185C148.523 308.185 147.286 308.652 146.369 309.587C145.471 310.504 145.022 311.778 145.022 313.41V321H143.069V306.535H144.939V309.202C145.471 308.322 146.204 307.644 147.139 307.167C148.093 306.672 149.193 306.425 150.439 306.425ZM169.298 320.12C168.931 320.45 168.473 320.707 167.923 320.89C167.391 321.055 166.832 321.138 166.245 321.138C164.888 321.138 163.843 320.771 163.11 320.037C162.377 319.304 162.01 318.268 162.01 316.93V308.185H159.425V306.535H162.01V303.372H163.963V306.535H168.363V308.185H163.963V316.82C163.963 317.682 164.173 318.342 164.595 318.8C165.035 319.24 165.658 319.46 166.465 319.46C166.868 319.46 167.253 319.396 167.62 319.267C168.005 319.139 168.335 318.956 168.61 318.717L169.298 320.12ZM187.667 320.12C187.3 320.45 186.842 320.707 186.292 320.89C185.76 321.055 185.201 321.138 184.614 321.138C183.257 321.138 182.212 320.771 181.479 320.037C180.746 319.304 180.379 318.268 180.379 316.93V308.185H177.794V306.535H180.379V303.372H182.332V306.535H186.732V308.185H182.332V316.82C182.332 317.682 182.542 318.342 182.964 318.8C183.404 319.24 184.027 319.46 184.834 319.46C185.237 319.46 185.622 319.396 185.989 319.267C186.374 319.139 186.704 318.956 186.979 318.717L187.667 320.12ZM196.623 321.138C195.23 321.138 193.974 320.826 192.856 320.202C191.737 319.561 190.857 318.681 190.216 317.562C189.574 316.444 189.253 315.179 189.253 313.767C189.253 312.356 189.574 311.091 190.216 309.972C190.857 308.854 191.737 307.983 192.856 307.36C193.974 306.737 195.23 306.425 196.623 306.425C198.017 306.425 199.272 306.737 200.391 307.36C201.509 307.983 202.38 308.854 203.003 309.972C203.645 311.091 203.966 312.356 203.966 313.767C203.966 315.179 203.645 316.444 203.003 317.562C202.38 318.681 201.509 319.561 200.391 320.202C199.272 320.826 198.017 321.138 196.623 321.138ZM196.623 319.405C197.65 319.405 198.567 319.176 199.373 318.717C200.198 318.241 200.84 317.572 201.298 316.71C201.757 315.848 201.986 314.867 201.986 313.767C201.986 312.667 201.757 311.687 201.298 310.825C200.84 309.963 200.198 309.303 199.373 308.845C198.567 308.368 197.65 308.13 196.623 308.13C195.597 308.13 194.671 308.368 193.846 308.845C193.039 309.303 192.397 309.963 191.921 310.825C191.462 311.687 191.233 312.667 191.233 313.767C191.233 314.867 191.462 315.848 191.921 316.71C192.397 317.572 193.039 318.241 193.846 318.717C194.671 319.176 195.597 319.405 196.623 319.405ZM219.027 321.138C217.853 321.138 216.726 320.973 215.644 320.642C214.581 320.294 213.747 319.863 213.142 319.35L214.022 317.81C214.627 318.287 215.388 318.681 216.304 318.992C217.221 319.286 218.174 319.432 219.164 319.432C220.484 319.432 221.456 319.231 222.079 318.827C222.721 318.406 223.042 317.819 223.042 317.067C223.042 316.536 222.868 316.123 222.519 315.83C222.171 315.518 221.731 315.289 221.199 315.142C220.668 314.977 219.962 314.822 219.082 314.675C217.908 314.455 216.964 314.235 216.249 314.015C215.534 313.777 214.92 313.382 214.407 312.832C213.912 312.282 213.664 311.522 213.664 310.55C213.664 309.34 214.168 308.35 215.177 307.58C216.185 306.81 217.588 306.425 219.384 306.425C220.319 306.425 221.254 306.553 222.189 306.81C223.124 307.048 223.894 307.369 224.499 307.772L223.647 309.34C222.455 308.515 221.034 308.102 219.384 308.102C218.138 308.102 217.193 308.322 216.552 308.762C215.928 309.202 215.617 309.78 215.617 310.495C215.617 311.045 215.791 311.485 216.139 311.815C216.506 312.145 216.955 312.392 217.487 312.557C218.018 312.704 218.752 312.86 219.687 313.025C220.842 313.245 221.768 313.465 222.464 313.685C223.161 313.905 223.757 314.281 224.252 314.812C224.747 315.344 224.994 316.077 224.994 317.012C224.994 318.277 224.463 319.286 223.399 320.037C222.354 320.771 220.897 321.138 219.027 321.138ZM235.974 306.425C237.789 306.425 239.228 306.957 240.291 308.02C241.373 309.065 241.914 310.596 241.914 312.612V321H239.961V312.805C239.961 311.302 239.586 310.156 238.834 309.367C238.082 308.579 237.01 308.185 235.616 308.185C234.058 308.185 232.821 308.652 231.904 309.587C231.006 310.504 230.556 311.778 230.556 313.41V321H228.604V300.595H230.556V309.065C231.088 308.222 231.821 307.571 232.756 307.113C233.691 306.654 234.764 306.425 235.974 306.425ZM253.181 321.138C251.788 321.138 250.532 320.826 249.413 320.202C248.295 319.561 247.415 318.681 246.773 317.562C246.132 316.444 245.811 315.179 245.811 313.767C245.811 312.356 246.132 311.091 246.773 309.972C247.415 308.854 248.295 307.983 249.413 307.36C250.532 306.737 251.788 306.425 253.181 306.425C254.574 306.425 255.83 306.737 256.948 307.36C258.067 307.983 258.938 308.854 259.561 309.972C260.203 311.091 260.523 312.356 260.523 313.767C260.523 315.179 260.203 316.444 259.561 317.562C258.938 318.681 258.067 319.561 256.948 320.202C255.83 320.826 254.574 321.138 253.181 321.138ZM253.181 319.405C254.208 319.405 255.124 319.176 255.931 318.717C256.756 318.241 257.398 317.572 257.856 316.71C258.314 315.848 258.543 314.867 258.543 313.767C258.543 312.667 258.314 311.687 257.856 310.825C257.398 309.963 256.756 309.303 255.931 308.845C255.124 308.368 254.208 308.13 253.181 308.13C252.154 308.13 251.228 308.368 250.403 308.845C249.597 309.303 248.955 309.963 248.478 310.825C248.02 311.687 247.791 312.667 247.791 313.767C247.791 314.867 248.02 315.848 248.478 316.71C248.955 317.572 249.597 318.241 250.403 318.717C251.228 319.176 252.154 319.405 253.181 319.405ZM285.337 306.535L279.864 321H278.022L273.457 309.147L268.892 321H267.049L261.604 306.535H263.474L268.012 318.827L272.659 306.535H274.337L278.957 318.827L283.549 306.535H285.337ZM308.674 300.595V321H306.804V318.14C306.217 319.112 305.438 319.854 304.466 320.367C303.513 320.881 302.431 321.138 301.221 321.138C299.865 321.138 298.636 320.826 297.536 320.202C296.436 319.579 295.575 318.708 294.951 317.59C294.328 316.472 294.016 315.197 294.016 313.767C294.016 312.337 294.328 311.063 294.951 309.945C295.575 308.827 296.436 307.965 297.536 307.36C298.636 306.737 299.865 306.425 301.221 306.425C302.395 306.425 303.449 306.672 304.384 307.167C305.337 307.644 306.116 308.35 306.721 309.285V300.595H308.674ZM301.386 319.405C302.395 319.405 303.302 319.176 304.109 318.717C304.934 318.241 305.576 317.572 306.034 316.71C306.511 315.848 306.749 314.867 306.749 313.767C306.749 312.667 306.511 311.687 306.034 310.825C305.576 309.963 304.934 309.303 304.109 308.845C303.302 308.368 302.395 308.13 301.386 308.13C300.36 308.13 299.434 308.368 298.609 308.845C297.802 309.303 297.161 309.963 296.684 310.825C296.226 311.687 295.996 312.667 295.996 313.767C295.996 314.867 296.226 315.848 296.684 316.71C297.161 317.572 297.802 318.241 298.609 318.717C299.434 319.176 300.36 319.405 301.386 319.405ZM326.707 314.372H314.607C314.717 315.876 315.294 317.095 316.339 318.03C317.384 318.947 318.704 319.405 320.299 319.405C321.197 319.405 322.022 319.249 322.774 318.937C323.526 318.607 324.177 318.131 324.727 317.507L325.827 318.772C325.185 319.542 324.378 320.129 323.407 320.532C322.453 320.936 321.399 321.138 320.244 321.138C318.759 321.138 317.439 320.826 316.284 320.202C315.147 319.561 314.258 318.681 313.617 317.562C312.975 316.444 312.654 315.179 312.654 313.767C312.654 312.356 312.957 311.091 313.562 309.972C314.185 308.854 315.028 307.983 316.092 307.36C317.173 306.737 318.383 306.425 319.722 306.425C321.06 306.425 322.261 306.737 323.324 307.36C324.387 307.983 325.222 308.854 325.827 309.972C326.432 311.072 326.734 312.337 326.734 313.767L326.707 314.372ZM319.722 308.102C318.328 308.102 317.155 308.552 316.202 309.45C315.267 310.33 314.735 311.485 314.607 312.915H324.864C324.736 311.485 324.195 310.33 323.242 309.45C322.307 308.552 321.133 308.102 319.722 308.102ZM338.326 320.12C337.959 320.45 337.501 320.707 336.951 320.89C336.419 321.055 335.86 321.138 335.273 321.138C333.917 321.138 332.872 320.771 332.138 320.037C331.405 319.304 331.038 318.268 331.038 316.93V308.185H328.453V306.535H331.038V303.372H332.991V306.535H337.391V308.185H332.991V316.82C332.991 317.682 333.202 318.342 333.623 318.8C334.063 319.24 334.687 319.46 335.493 319.46C335.897 319.46 336.282 319.396 336.648 319.267C337.033 319.139 337.363 318.956 337.638 318.717L338.326 320.12ZM346.94 306.425C348.829 306.425 350.277 306.902 351.285 307.855C352.294 308.79 352.798 310.183 352.798 312.035V321H350.928V318.745C350.488 319.497 349.837 320.083 348.975 320.505C348.132 320.927 347.124 321.138 345.95 321.138C344.337 321.138 343.054 320.753 342.1 319.982C341.147 319.212 340.67 318.195 340.67 316.93C340.67 315.702 341.11 314.712 341.99 313.96C342.889 313.208 344.309 312.832 346.253 312.832H350.845V311.952C350.845 310.706 350.497 309.762 349.8 309.12C349.104 308.46 348.086 308.13 346.748 308.13C345.831 308.13 344.951 308.286 344.108 308.597C343.264 308.891 342.54 309.303 341.935 309.835L341.055 308.377C341.789 307.754 342.669 307.277 343.695 306.947C344.722 306.599 345.804 306.425 346.94 306.425ZM346.253 319.597C347.353 319.597 348.297 319.35 349.085 318.855C349.874 318.342 350.46 317.608 350.845 316.655V314.29H346.308C343.833 314.29 342.595 315.152 342.595 316.875C342.595 317.718 342.916 318.387 343.558 318.882C344.199 319.359 345.098 319.597 346.253 319.597ZM358.101 306.535H360.053V321H358.101V306.535ZM359.091 303.372C358.688 303.372 358.348 303.235 358.073 302.96C357.798 302.685 357.661 302.355 357.661 301.97C357.661 301.603 357.798 301.282 358.073 301.007C358.348 300.732 358.688 300.595 359.091 300.595C359.494 300.595 359.833 300.732 360.108 301.007C360.383 301.264 360.521 301.576 360.521 301.942C360.521 302.346 360.383 302.685 360.108 302.96C359.833 303.235 359.494 303.372 359.091 303.372ZM365.486 300.595H367.439V321H365.486V300.595ZM376.749 321.138C375.576 321.138 374.448 320.973 373.366 320.642C372.303 320.294 371.469 319.863 370.864 319.35L371.744 317.81C372.349 318.287 373.11 318.681 374.026 318.992C374.943 319.286 375.896 319.432 376.886 319.432C378.206 319.432 379.178 319.231 379.801 318.827C380.443 318.406 380.764 317.819 380.764 317.067C380.764 316.536 380.59 316.123 380.241 315.83C379.893 315.518 379.453 315.289 378.921 315.142C378.39 314.977 377.684 314.822 376.804 314.675C375.631 314.455 374.686 314.235 373.971 314.015C373.256 313.777 372.642 313.382 372.129 312.832C371.634 312.282 371.386 311.522 371.386 310.55C371.386 309.34 371.891 308.35 372.899 307.58C373.907 306.81 375.31 306.425 377.106 306.425C378.041 306.425 378.976 306.553 379.911 306.81C380.846 307.048 381.616 307.369 382.221 307.772L381.369 309.34C380.177 308.515 378.756 308.102 377.106 308.102C375.86 308.102 374.916 308.322 374.274 308.762C373.651 309.202 373.339 309.78 373.339 310.495C373.339 311.045 373.513 311.485 373.861 311.815C374.228 312.145 374.677 312.392 375.209 312.557C375.741 312.704 376.474 312.86 377.409 313.025C378.564 313.245 379.49 313.465 380.186 313.685C380.883 313.905 381.479 314.281 381.974 314.812C382.469 315.344 382.716 316.077 382.716 317.012C382.716 318.277 382.185 319.286 381.121 320.037C380.076 320.771 378.619 321.138 376.749 321.138Z" fill="#D4D4D4"/>
</svg>
